<svg
            version="1.0"
            xmlns="http://www.w3.org/2000/svg"
            width="2em"
            height="2em"
            viewBox="0 0 30.000000 30.000000"
            preserveAspectRatio="xMidYMid meet"
          >
            <g
              transform="translate(0.000000,30.000000) scale(0.100000,-0.100000)"
              fill="#424242"
              stroke="none"
            >
              <path
                d="M0 243 c0 -24 37 -83 51 -83 8 0 9 -14 5 -44 -5 -33 -3 -48 9 -60 32
          -31 50 -9 20 24 -12 14 -13 23 -5 45 10 25 8 31 -21 55 -25 20 -29 29 -19 35
          9 5 20 0 34 -16 17 -20 30 -24 76 -24 46 0 59 4 76 24 14 16 25 21 34 16 10
          -6 6 -15 -19 -35 -29 -24 -31 -30 -21 -55 8 -22 7 -31 -5 -45 -30 -33 -12 -55
          20 -24 12 12 14 27 9 60 -4 30 -3 44 5 44 14 0 51 59 51 83 0 28 -39 20 -75
          -15 -26 -27 -40 -33 -75 -33 -35 0 -49 6 -75 33 -36 35 -75 43 -75 15z"
              />
              <path
                d="M100 115 c0 -8 7 -15 15 -15 8 0 15 7 15 15 0 8 -7 15 -15 15 -8 0
          -15 -7 -15 -15z"
              />
              <path
                d="M170 115 c0 -8 7 -15 15 -15 8 0 15 7 15 15 0 8 -7 15 -15 15 -8 0
          -15 -7 -15 -15z"
              />
            </g>
          </svg>
