<svg
            version="1.0"
            xmlns="http://www.w3.org/2000/svg"
            width="2em"
            height="2em"
            viewBox="0 0 64.000000 64.000000"
            preserveAspectRatio="xMidYMid meet"
          >
            <g
              transform="translate(0.000000,64.000000) scale(0.100000,-0.100000)"
              fill="#424242"
              stroke="none"
            >
              <path
                d="M275 541 c-88 -22 -175 -112 -175 -181 0 -18 6 -20 65 -20 39 0 65 4
          65 10 0 6 11 22 25 35 34 35 96 35 130 0 14 -13 25 -29 25 -35 0 -6 26 -10 65
          -10 59 0 65 2 65 20 0 30 -34 91 -67 121 -55 52 -135 76 -198 60z"
              />
              <path
                d="M290 350 c-11 -11 -20 -24 -20 -30 0 -5 9 -19 20 -30 11 -11 25 -20
          30 -20 6 0 19 9 30 20 11 11 20 25 20 30 0 6 -9 19 -20 30 -11 11 -24 20 -30
          20 -5 0 -19 -9 -30 -20z m50 -16 c11 -12 10 -18 -3 -32 -16 -15 -18 -15 -34 0
          -13 14 -14 20 -3 32 7 9 16 16 20 16 4 0 13 -7 20 -16z"
              />
              <path
                d="M100 280 c0 -12 9 -37 19 -58 87 -169 318 -166 405 5 9 18 16 41 16
          53 0 18 -6 20 -65 20 -39 0 -65 -4 -65 -10 0 -6 -11 -22 -25 -35 -34 -35 -96
          -35 -130 0 -14 13 -25 29 -25 35 0 6 -26 10 -65 10 -59 0 -65 -2 -65 -20z"
              />
            </g>
          </svg>
